<svg xmlns="http://www.w3.org/2000/svg" viewBox="0 0 1100 750" font-family="Arial,sans-serif">
  <defs>
    <marker id="aB" markerWidth="10" markerHeight="7" refX="9" refY="3.5" orient="auto"><polygon points="0 0,10 3.5,0 7" fill="#3b82f6"/></marker>
    <marker id="aG" markerWidth="10" markerHeight="7" refX="9" refY="3.5" orient="auto"><polygon points="0 0,10 3.5,0 7" fill="#22c55e"/></marker>
    <marker id="aO" markerWidth="10" markerHeight="7" refX="9" refY="3.5" orient="auto"><polygon points="0 0,10 3.5,0 7" fill="#f97316"/></marker>
  </defs>
  <rect width="1100" height="750" fill="#0f172a"/>
  <text x="550" y="32" text-anchor="middle" fill="#f8fafc" font-size="18" font-weight="bold">CLS Cognitive Loop — System Architecture</text>
  <text x="550" y="52" text-anchor="middle" fill="#94a3b8" font-size="11">6-Step Cycle · Dual-AI Gate · Fuse Board · Symbolic Dynamics · Cross-Window</text>
  <rect x="40" y="68" width="1020" height="50" rx="6" fill="#7f1d1d" fill-opacity="0.35" stroke="#dc2626" stroke-width="1.5"/>
  <text x="550" y="88" text-anchor="middle" fill="#fca5a5" font-size="13" font-weight="bold">FUSE BOARD — 6 Independent Circuit Breakers (stdlib-only)</text>
  <text x="550" y="106" text-anchor="middle" fill="#f87171" font-size="9">WRITE_PROTECT | RECURSION_LIMIT | TOKEN_BUDGET(500K) | PARALLEL_CAP(3) | CHECKPOINT(300s) | PROXY_PURITY</text>
  <rect x="40" y="130" width="1020" height="440" rx="6" fill="#1e293b" fill-opacity="0.4" stroke="#334155" stroke-width="1"/>
  <text x="550" y="152" text-anchor="middle" fill="#e2e8f0" font-size="14" font-weight="bold">COGNITIVE CORE LOOP — 6-Step Closed Cycle</text>
  <rect x="230" y="175" width="165" height="75" rx="6" fill="#1e3a5f" stroke="#3b82f6" stroke-width="1.5"/>
  <text x="312" y="198" text-anchor="middle" fill="#60a5fa" font-size="12" font-weight="bold">1 Situational Awareness</text>
  <text x="312" y="218" text-anchor="middle" fill="#93c5fd" font-size="10">Read state · Match trajectory</text>
  <text x="312" y="236" text-anchor="middle" fill="#93c5fd" font-size="10">Cross-window peek</text>
  <rect x="470" y="175" width="165" height="75" rx="6" fill="#1e3a5f" stroke="#3b82f6" stroke-width="1.5"/>
  <text x="552" y="198" text-anchor="middle" fill="#60a5fa" font-size="12" font-weight="bold">2 Task Execution</text>
  <text x="552" y="218" text-anchor="middle" fill="#93c5fd" font-size="10">Scope · Pre-flight checks</text>
  <text x="552" y="236" text-anchor="middle" fill="#93c5fd" font-size="10">Execute · Cleanup</text>
  <rect x="710" y="265" width="165" height="75" rx="6" fill="#1e3a5f" stroke="#3b82f6" stroke-width="1.5"/>
  <text x="792" y="288" text-anchor="middle" fill="#60a5fa" font-size="12" font-weight="bold">3 Associative Learning</text>
  <text x="792" y="308" text-anchor="middle" fill="#93c5fd" font-size="10">Pattern matching · Linking</text>
  <text x="792" y="326" text-anchor="middle" fill="#93c5fd" font-size="10">Flag contradictions</text>
  <rect x="710" y="400" width="165" height="75" rx="6" fill="#1e3a5f" stroke="#3b82f6" stroke-width="1.5"/>
  <text x="792" y="423" text-anchor="middle" fill="#60a5fa" font-size="12" font-weight="bold">4 Abstract Generalization</text>
  <text x="792" y="443" text-anchor="middle" fill="#93c5fd" font-size="10">Decontextualize · Extract</text>
  <text x="792" y="461" text-anchor="middle" fill="#93c5fd" font-size="10">Transferable patterns</text>
  <rect x="470" y="400" width="165" height="75" rx="6" fill="#1e3a5f" stroke="#3b82f6" stroke-width="1.5"/>
  <text x="552" y="423" text-anchor="middle" fill="#60a5fa" font-size="12" font-weight="bold">5 Context Persistence</text>
  <text x="552" y="443" text-anchor="middle" fill="#93c5fd" font-size="10">Write checkpoint · Save</text>
  <text x="552" y="461" text-anchor="middle" fill="#93c5fd" font-size="10">Cross-session continuity</text>
  <rect x="230" y="265" width="165" height="75" rx="6" fill="#1e3a5f" stroke="#3b82f6" stroke-width="1.5"/>
  <text x="312" y="288" text-anchor="middle" fill="#60a5fa" font-size="12" font-weight="bold">6 Trajectory Update</text>
  <text x="312" y="308" text-anchor="middle" fill="#93c5fd" font-size="10">Calculate Delta-q Delta-p</text>
  <text x="312" y="326" text-anchor="middle" fill="#93c5fd" font-size="10">Close loop back to 1</text>
  <line x1="395" y1="212" x2="465" y2="212" stroke="#3b82f6" stroke-width="2" marker-end="url(#aB)"/>
  <line x1="635" y1="212" x2="710" y2="285" stroke="#3b82f6" stroke-width="2" marker-end="url(#aB)"/>
  <line x1="792" y1="340" x2="792" y2="395" stroke="#3b82f6" stroke-width="2" marker-end="url(#aB)"/>
  <line x1="710" y1="437" x2="640" y2="437" stroke="#3b82f6" stroke-width="2" marker-end="url(#aB)"/>
  <line x1="470" y1="437" x2="400" y2="340" stroke="#3b82f6" stroke-width="2" marker-end="url(#aB)"/>
  <line x1="312" y1="265" x2="312" y2="255" stroke="#93c5fd" stroke-width="2.5" stroke-dasharray="6,4" marker-end="url(#aB)"/>
  <text x="330" y="258" fill="#93c5fd" font-size="9">loop closure</text>
  <rect x="910" y="185" width="130" height="55" rx="6" fill="#14532d" fill-opacity="0.5" stroke="#22c55e" stroke-width="1.5"/>
  <text x="975" y="205" text-anchor="middle" fill="#4ade80" font-size="11" font-weight="bold">DUAL-AI GATE</text>
  <text x="975" y="225" text-anchor="middle" fill="#86efac" font-size="9">DS creates Qwen verifies</text>
  <line x1="635" y1="212" x2="905" y2="210" stroke="#22c55e" stroke-width="1.5" stroke-dasharray="4,3" marker-end="url(#aG)"/>
  <text x="770" y="202" fill="#4ade80" font-size="8">verify outputs</text>
  <rect x="910" y="400" width="130" height="55" rx="6" fill="#7c2d12" fill-opacity="0.4" stroke="#f97316" stroke-width="1.5"/>
  <text x="975" y="420" text-anchor="middle" fill="#fb923c" font-size="11" font-weight="bold">SYMBOLIC DYNAMICS</text>
  <text x="975" y="440" text-anchor="middle" fill="#fdba74" font-size="9">50K tokens to 3 numbers</text>
  <line x1="875" y1="437" x2="905" y2="425" stroke="#f97316" stroke-width="1.5" stroke-dasharray="4,3" marker-end="url(#aO)"/>
  <text x="850" y="445" fill="#fb923c" font-size="8">audit</text>
  <rect x="50" y="265" width="110" height="65" rx="6" fill="#134e4a" fill-opacity="0.4" stroke="#0d9488" stroke-width="1.5"/>
  <text x="105" y="288" text-anchor="middle" fill="#2dd4bf" font-size="11" font-weight="bold">CROSS-WINDOW</text>
  <text x="105" y="306" text-anchor="middle" fill="#5eead4" font-size="9">peek announce</text>
  <text x="105" y="320" text-anchor="middle" fill="#5eead4" font-size="9">cover_check</text>
  <line x1="165" y1="280" x2="225" y2="225" stroke="#0d9488" stroke-width="1.5" stroke-dasharray="4,3" marker-end="url(#aB)"/>
  <text x="155" y="245" fill="#5eead4" font-size="7">share state</text>
  <rect x="40" y="595" width="1020" height="45" rx="6" fill="#0f172a" fill-opacity="0.6" stroke="#475569" stroke-width="1"/>
  <text x="550" y="615" text-anchor="middle" fill="#cbd5e1" font-size="12" font-weight="bold">FACT ANCHORING — Anti-Hallucination Floodgate</text>
  <text x="550" y="632" text-anchor="middle" fill="#94a3b8" font-size="10">Tier 1: Premise Check → Tier 2: Anchor Claim (path+field+value) → Tier 3: Qwen Independent Verification</text>
  <text x="280" y="555" text-anchor="middle" fill="#60a5fa" font-size="9" font-weight="bold">SYSTOLE (Action: Steps 1-2-5)</text>
  <text x="750" y="555" text-anchor="middle" fill="#a78bfa" font-size="9" font-weight="bold">DIASTOLE (Reflection: Steps 3-4-6)</text>
  <text x="550" y="680" text-anchor="middle" fill="#64748b" font-size="9">Blue=Cognitive | Green=Verification | Orange=Audit | Teal=Cross-Window</text>
  <text x="1045" y="735" text-anchor="right" fill="#475569" font-size="8">CLS v21 · 2026-06</text>
</svg>
